<svg width="740" height="800" viewBox="0 0 740 800" fill="none" xmlns="http://www.w3.org/2000/svg">
<g id="Group">
<path id="Vector" d="M532.614 98.4835V17.3913C532.614 7.78783 524.826 0 515.223 0H415.885C409.165 0 403.047 3.87304 400.169 9.94435L376.012 60.9235C373.983 60.887 371.976 60.8696 370 60.8696C166.221 60.8696 0.434784 226.656 0.434784 430.435C0.434784 518.13 31.3896 602.419 87.8365 669.094L37.5774 775.162C35.0243 780.55 35.4087 786.87 38.5965 791.908C41.7843 796.946 47.3304 800 53.2939 800H163.217C169.937 800 176.056 796.127 178.934 790.056L195.052 756.04C248.61 784.85 308.697 800 370 800C573.779 800 739.565 634.214 739.565 430.435C739.565 289.419 658.703 160.351 532.614 98.4835ZM370 765.217C308.61 765.217 248.583 748.459 196.41 716.757C193.661 715.085 190.534 714.228 187.379 714.228C185.706 714.228 184.024 714.47 182.388 714.96C177.67 716.374 173.772 719.722 171.663 724.172L152.212 765.217H80.7774L124.15 673.683C127.157 667.336 126.052 659.803 121.348 654.588C65.8052 593.016 35.2174 513.41 35.2174 430.435C35.2174 245.835 185.4 95.6522 370 95.6522C375.146 95.6522 380.539 95.7826 386.03 96.0435C393.037 96.3791 399.56 92.4591 402.565 86.1183L426.889 34.7826H497.831V109.506C497.831 116.334 501.826 122.527 508.043 125.346C627.558 179.513 704.783 299.268 704.783 430.435C704.783 615.035 554.6 765.217 370 765.217Z" fill="#AA4A99"/>
<path id="Vector_2" d="M630.449 277.339C604.838 232.372 568.122 194.49 524.266 167.791C518.896 164.525 512.184 164.41 506.701 167.485C501.223 170.565 497.83 176.362 497.83 182.647V452.647L433.271 386.463L433.275 249.379C433.275 241.245 427.636 234.198 419.699 232.412C411.765 230.628 403.649 234.581 400.167 241.932L307.136 438.268C304.583 443.657 304.967 449.976 308.155 455.014C311.343 460.052 316.889 463.106 322.852 463.106H415.878C425.482 463.106 433.27 455.32 433.27 445.715V436.275L490.925 495.381L433.27 554.489V545.05C433.27 535.447 425.482 527.659 415.878 527.659H275.781C269.061 527.659 262.943 531.532 260.064 537.603L199.763 664.863C196.061 672.675 198.659 682.021 205.863 686.8C254.708 719.214 311.466 736.344 369.997 736.344C535.847 736.344 670.776 599.115 670.776 430.435C670.779 376.605 656.833 323.664 630.449 277.339ZM350.339 428.322L398.492 326.699L398.489 428.322H350.339ZM497.831 538.115V579.831H457.139L497.831 538.115ZM370 701.562C323.339 701.562 277.953 689.226 237.83 665.758L286.786 562.442H398.489V597.223C398.489 597.256 398.494 597.285 398.494 597.318C398.497 597.939 398.532 598.562 398.602 599.179C398.617 599.31 398.645 599.438 398.663 599.57C398.729 600.054 398.809 600.537 398.917 601.016C398.96 601.21 399.016 601.4 399.064 601.591C399.172 602.005 399.29 602.417 399.428 602.823C399.492 603.012 399.562 603.198 399.631 603.384C399.786 603.79 399.955 604.191 400.141 604.588C400.219 604.753 400.294 604.916 400.377 605.08C400.584 605.487 400.812 605.887 401.052 606.278C401.137 606.417 401.216 606.558 401.306 606.694C401.569 607.097 401.857 607.49 402.157 607.876C402.243 607.988 402.322 608.106 402.412 608.214C402.756 608.633 403.125 609.038 403.515 609.431C403.572 609.489 403.623 609.551 403.68 609.61C403.699 609.63 403.716 609.65 403.736 609.67C404.183 610.104 404.647 610.506 405.127 610.885C405.511 611.188 405.91 611.473 406.318 611.743C406.529 611.882 406.746 612.003 406.962 612.134C407.193 612.273 407.424 612.414 407.664 612.541C407.889 612.661 408.118 612.772 408.346 612.882C408.591 613 408.838 613.115 409.09 613.221C409.313 613.316 409.536 613.405 409.762 613.49C410.035 613.593 410.313 613.685 410.593 613.776C410.805 613.843 411.016 613.911 411.23 613.97C411.537 614.056 411.849 614.125 412.163 614.195C412.358 614.236 412.551 614.285 412.746 614.32C413.097 614.384 413.454 614.43 413.814 614.471C413.977 614.492 414.139 614.52 414.303 614.534C414.798 614.579 415.301 614.603 415.807 614.605C415.83 614.605 415.852 614.609 415.876 614.609H415.88H415.883H515.221C524.824 614.609 532.612 606.821 532.612 597.217V215.906C597.056 266.889 635.995 346.44 635.995 430.435C635.996 579.936 516.671 701.562 370 701.562Z" fill="#9E0810"/>
<path id="Vector_3" d="M371.2 132.598C367.814 127.517 362.017 124.619 355.91 124.868C278.501 128.504 206.306 161.937 152.621 219.014C98.84 276.195 69.2209 351.277 69.2209 430.435C69.2209 495.134 88.8539 556.99 125.997 609.311C129.275 613.929 134.574 616.635 140.176 616.635C140.68 616.635 141.188 616.612 141.697 616.569C147.849 616.028 153.252 612.27 155.896 606.69L372.442 149.687C375.056 144.167 374.586 137.682 371.2 132.598ZM138.016 563.193C115.685 522.826 104.002 477.487 104.002 430.435C104.002 295.544 200.134 183.294 327.786 162.696L138.016 563.193Z" fill="#AA4A99"/>
</g>
</svg>
